<svg width="264" height="91" viewBox="0 0 264 91" fill="none" xmlns="http://www.w3.org/2000/svg">
<path d="M107.958 47.2395V45.4992C109.118 45.4686 110.049 45.3923 110.751 45.2702C111.484 45.1175 112.049 44.858 112.446 44.4916C112.843 44.0947 113.102 43.5756 113.224 42.9345C113.377 42.2628 113.453 41.3773 113.453 40.2782V18.9362C113.453 17.8675 113.392 17.0126 113.27 16.3715C113.179 15.6998 112.965 15.1807 112.629 14.8143C112.324 14.4174 111.866 14.1579 111.255 14.0358C110.645 13.8831 109.851 13.7762 108.874 13.7152V11.9748H124.949C127.697 11.9748 130.231 12.4328 132.551 13.3488C134.902 14.2648 136.917 15.5318 138.597 17.15C140.307 18.7682 141.635 20.6918 142.581 22.9206C143.528 25.1495 144.001 27.5768 144.001 30.2025C144.001 32.7062 143.558 35.0114 142.673 37.1181C141.787 39.1943 140.536 40.9804 138.917 42.4765C137.33 43.9726 135.421 45.148 133.193 46.0029C130.964 46.8273 128.521 47.2395 125.865 47.2395H107.958ZM119.041 14.219C118.522 14.219 118.262 14.4785 118.262 14.9975V39.7744C118.262 43.2551 120.537 44.9954 125.086 44.9954C129.269 44.9954 132.475 43.7588 134.704 41.2857C136.933 38.7821 138.047 35.1182 138.047 30.2941C138.047 27.76 137.742 25.5006 137.131 23.516C136.521 21.5314 135.635 19.8521 134.475 18.4782C133.345 17.1042 131.971 16.0509 130.353 15.3181C128.735 14.5853 126.903 14.219 124.857 14.219H119.041ZM157.548 39.9576C157.548 41.2094 157.578 42.2017 157.639 42.9345C157.7 43.6672 157.853 44.2321 158.097 44.629C158.372 44.9954 158.754 45.2396 159.242 45.3618C159.731 45.4839 160.418 45.5755 161.303 45.6366V47.2395H149.121V45.6366C150.006 45.606 150.708 45.5297 151.227 45.4076C151.746 45.2549 152.143 44.9954 152.418 44.629C152.693 44.2626 152.861 43.7436 152.922 43.0719C153.014 42.3696 153.059 41.4384 153.059 40.2782V34.9198C153.059 32.8436 153.029 31.2254 152.968 30.0652C152.937 28.9049 152.785 28.05 152.51 27.5004C152.265 26.9509 151.869 26.6303 151.319 26.5387C150.769 26.4166 150.006 26.3555 149.029 26.3555V24.7526L157.044 23.0122L157.685 28.6912H157.868C158.265 27.7752 158.754 26.9356 159.334 26.1723C159.944 25.409 160.601 24.7678 161.303 24.2488C162.005 23.6992 162.738 23.2717 163.501 22.9664C164.265 22.6611 165.043 22.5084 165.837 22.5084C166.814 22.5084 167.577 22.7527 168.127 23.2412C168.707 23.6992 168.997 24.3251 168.997 25.1189C168.997 25.8517 168.768 26.4318 168.31 26.8593C167.852 27.2562 167.196 27.4547 166.341 27.4547C165.852 27.4547 165.44 27.3936 165.104 27.2715C164.768 27.1493 164.463 27.0272 164.188 26.9051C163.944 26.7524 163.7 26.615 163.456 26.4929C163.242 26.3708 162.998 26.3097 162.723 26.3097C161.898 26.3097 161.074 26.844 160.25 27.9126C159.425 28.9507 158.784 30.2789 158.326 31.8971C158.082 32.7825 157.883 33.7901 157.731 34.9198C157.609 36.0189 157.548 37.1791 157.548 38.4004V39.9576ZM185.877 33.6832C184.136 34.3549 182.655 35.0114 181.434 35.6525C180.243 36.2937 179.282 36.9349 178.549 37.5761C177.816 38.2172 177.282 38.8584 176.946 39.4996C176.641 40.1408 176.488 40.7972 176.488 41.4689C176.488 42.4765 176.824 43.3009 177.496 43.942C178.167 44.5832 179.053 44.9038 180.152 44.9038C180.946 44.9038 181.678 44.7053 182.35 44.3084C183.052 43.9115 183.663 43.3772 184.182 42.7055C184.701 42.0032 185.113 41.1941 185.419 40.2782C185.724 39.3317 185.877 38.3394 185.877 37.3013V33.6832ZM185.877 31.7139V29.8362C185.877 26.1112 184.289 24.2488 181.114 24.2488C180.595 24.2488 180.152 24.2946 179.785 24.3862C179.419 24.4778 179.114 24.6304 178.869 24.8442C178.625 25.0579 178.396 25.3632 178.183 25.7601C177.999 26.157 177.816 26.6455 177.633 27.2257C177.297 28.1111 176.961 28.7065 176.625 29.0118C176.32 29.2866 175.862 29.424 175.251 29.424C173.725 29.424 172.962 28.6607 172.962 27.1341C172.962 25.6685 173.74 24.5388 175.297 23.745C176.854 22.9206 179.068 22.5084 181.938 22.5084C184.991 22.5084 187.159 23.058 188.441 24.1572C189.724 25.2258 190.365 27.0577 190.365 29.653V39.9118C190.365 43.3924 191.052 45.1328 192.426 45.1328C192.853 45.1328 193.265 45.087 193.662 44.9954C194.059 44.8733 194.395 44.5832 194.67 44.1252L195.311 45.2244C194.945 45.9266 194.273 46.522 193.296 47.0105C192.319 47.4685 191.296 47.6975 190.227 47.6975C188.884 47.6975 187.876 47.27 187.205 46.4151C186.564 45.5602 186.243 44.3542 186.243 42.7971H186.014C185.22 44.2931 184.121 45.4839 182.717 46.3693C181.312 47.2242 179.755 47.6517 178.045 47.6517C176.122 47.6517 174.61 47.1632 173.511 46.1861C172.412 45.2091 171.862 43.8962 171.862 42.2475C171.862 41.5147 171.984 40.8125 172.229 40.1408C172.504 39.4691 172.931 38.8279 173.511 38.2172C174.091 37.6066 174.855 37.0112 175.801 36.4311C176.748 35.8205 177.908 35.2098 179.282 34.5992L185.877 31.7139ZM208.488 37.3929C209.77 37.3929 210.762 36.8128 211.465 35.6525C212.197 34.4923 212.564 32.8588 212.564 30.7521C212.564 28.6759 212.197 27.073 211.465 25.9433C210.762 24.7831 209.755 24.203 208.442 24.203C207.129 24.203 206.076 24.7831 205.282 25.9433C204.519 27.1035 204.137 28.6912 204.137 30.7063C204.137 32.7215 204.534 34.3397 205.328 35.5609C206.121 36.7822 207.175 37.3929 208.488 37.3929ZM205.969 42.7513C206.702 42.8123 207.373 42.8734 207.984 42.9345C208.595 42.9955 209.19 43.0566 209.77 43.1177C210.381 43.1787 210.976 43.2551 211.556 43.3466C212.167 43.4382 212.823 43.5298 213.526 43.6214C215.724 43.9573 217.479 44.8122 218.792 46.1861C220.136 47.5296 220.807 49.2241 220.807 51.2697C220.807 53.8345 219.785 55.7885 217.739 57.1319C215.724 58.4753 212.793 59.1471 208.946 59.1471C207.236 59.1471 205.664 58.9944 204.228 58.6891C202.824 58.3837 201.618 57.941 200.61 57.3609C199.603 56.8113 198.809 56.1396 198.229 55.3458C197.679 54.552 197.405 53.6818 197.405 52.7353C197.405 52.0941 197.511 51.4987 197.725 50.9492C197.939 50.3996 198.229 49.9111 198.595 49.4836C198.962 49.0867 199.389 48.7661 199.878 48.5219C200.397 48.2776 200.931 48.1555 201.481 48.1555C202.519 48.1555 203.45 48.4761 204.274 49.1172C203.45 49.3004 202.778 49.7431 202.259 50.4454C201.74 51.1782 201.481 52.0025 201.481 52.9185C201.481 54.2619 202.137 55.3 203.45 56.0328C204.793 56.7655 206.686 57.1319 209.129 57.1319C214.35 57.1319 216.96 55.529 216.96 52.3231C216.96 51.1018 216.548 50.079 215.724 49.2546C214.899 48.4608 213.922 47.9875 212.793 47.8349C212.06 47.7433 211.297 47.6364 210.503 47.5143C209.74 47.4227 208.976 47.3311 208.213 47.2395C207.48 47.1479 206.793 47.0716 206.152 47.0105C205.511 46.9494 204.992 46.8884 204.595 46.8273C202.885 46.6441 201.587 46.1861 200.702 45.4534C199.817 44.7206 199.374 43.713 199.374 42.4307C199.374 41.3621 199.817 40.4156 200.702 39.5912C201.587 38.7668 202.702 38.2478 204.045 38.0341V37.8509C203.374 37.5761 202.748 37.1944 202.168 36.7059C201.587 36.1869 201.084 35.6067 200.656 34.9656C200.259 34.3244 199.939 33.6374 199.694 32.9046C199.45 32.1413 199.328 31.3628 199.328 30.5689C199.328 29.4087 199.542 28.3401 199.969 27.3631C200.427 26.386 201.053 25.5464 201.847 24.8442C202.671 24.1114 203.633 23.5465 204.732 23.1496C205.831 22.7222 207.037 22.5084 208.35 22.5084C209.694 22.5084 210.961 22.7222 212.152 23.1496C213.342 23.5465 214.365 24.1419 215.22 24.9357C216.258 24.0808 217.174 23.4702 217.968 23.1038C218.762 22.7069 219.51 22.5084 220.212 22.5084C221.311 22.5084 222.181 22.768 222.823 23.287C223.494 23.7755 223.83 24.4472 223.83 25.3021C223.83 25.8212 223.647 26.2334 223.281 26.5387C222.945 26.844 222.517 26.9967 221.998 26.9967C221.571 26.9967 221.22 26.9203 220.945 26.7677C220.67 26.615 220.411 26.4624 220.166 26.3097C219.953 26.1265 219.724 25.9586 219.479 25.8059C219.235 25.6533 218.93 25.5769 218.563 25.5769C217.831 25.5769 217.083 25.8364 216.319 26.3555C217.052 27.4852 217.418 28.9049 217.418 30.6147C217.418 33.21 216.609 35.2556 214.991 36.7517C213.373 38.2172 210.946 39.0721 207.709 39.3164C205.847 39.4691 204.549 39.6675 203.816 39.9118C203.084 40.156 202.717 40.5988 202.717 41.2399C202.717 41.7284 202.992 42.0948 203.542 42.3391C204.091 42.5528 204.9 42.6902 205.969 42.7513ZM238.703 22.5084C240.443 22.5084 242.092 22.829 243.649 23.4702C245.206 24.0808 246.565 24.9357 247.725 26.0349C248.916 27.1341 249.847 28.4469 250.519 29.9736C251.221 31.4696 251.572 33.1184 251.572 34.9198C251.572 36.7822 251.221 38.492 250.519 40.0492C249.847 41.6063 248.916 42.9497 247.725 44.0794C246.565 45.2091 245.206 46.0945 243.649 46.7357C242.092 47.3769 240.443 47.6975 238.703 47.6975C236.993 47.6975 235.36 47.3922 233.803 46.7815C232.276 46.1403 230.933 45.2549 229.772 44.1252C228.612 42.9955 227.696 41.6521 227.025 40.095C226.353 38.5073 226.017 36.7822 226.017 34.9198C226.017 33.1184 226.353 31.4544 227.025 29.9278C227.696 28.4011 228.612 27.0883 229.772 25.9891C230.933 24.8899 232.276 24.035 233.803 23.4244C235.36 22.8138 236.993 22.5084 238.703 22.5084ZM238.703 24.7068C237.573 24.7068 236.535 24.951 235.589 25.4395C234.673 25.928 233.879 26.6303 233.207 27.5462C232.566 28.4317 232.062 29.5156 231.696 30.7979C231.36 32.0497 231.192 33.439 231.192 34.9656C231.192 36.5532 231.36 37.9883 231.696 39.2706C232.062 40.553 232.566 41.6521 233.207 42.5681C233.879 43.4535 234.673 44.1405 235.589 44.629C236.505 45.1175 237.543 45.3618 238.703 45.3618C239.863 45.3618 240.917 45.1175 241.863 44.629C242.81 44.1405 243.619 43.4382 244.291 42.5223C244.962 41.6063 245.481 40.5072 245.848 39.2248C246.214 37.9425 246.397 36.5227 246.397 34.9656C246.397 33.439 246.214 32.0497 245.848 30.7979C245.481 29.5461 244.962 28.4775 244.291 27.592C243.619 26.6761 242.81 25.9738 241.863 25.4853C240.917 24.9663 239.863 24.7068 238.703 24.7068Z" fill="#236668"/>
<path d="M115.099 76.1835C115.467 76.6787 115.868 77.0277 116.303 77.2303C116.739 77.4329 117.226 77.5342 117.767 77.5342C118.832 77.5342 119.65 77.1552 120.221 76.3973C120.791 75.6394 121.076 74.5589 121.076 73.1556C121.076 72.4127 121.008 71.7749 120.873 71.2421C120.746 70.7093 120.558 70.2741 120.311 69.9364C120.063 69.5912 119.759 69.3399 119.399 69.1823C119.039 69.0247 118.63 68.9459 118.172 68.9459C117.519 68.9459 116.945 69.096 116.45 69.3961C115.962 69.6963 115.512 70.1203 115.099 70.6681V76.1835ZM114.998 69.2948C115.478 68.702 116.033 68.2255 116.664 67.8653C117.294 67.5051 118.014 67.325 118.825 67.325C119.485 67.325 120.082 67.4526 120.614 67.7077C121.147 67.9554 121.601 68.3268 121.976 68.8221C122.352 69.3098 122.641 69.9177 122.843 70.6455C123.046 71.3734 123.147 72.2101 123.147 73.1556C123.147 73.9961 123.035 74.7802 122.809 75.5081C122.584 76.2285 122.258 76.8551 121.83 77.3879C121.41 77.9131 120.892 78.3296 120.277 78.6373C119.669 78.9374 118.982 79.0875 118.217 79.0875C117.519 79.0875 116.919 78.9712 116.416 78.7386C115.921 78.4985 115.482 78.1683 115.099 77.7481V82.7907H113.084V67.5276H114.289C114.574 67.5276 114.75 67.6665 114.818 67.9441L114.998 69.2948ZM136.284 69.4074C136.194 69.5725 136.055 69.655 135.867 69.655C135.755 69.655 135.627 69.6137 135.485 69.5312C135.342 69.4487 135.166 69.3586 134.956 69.2611C134.753 69.156 134.509 69.0622 134.224 68.9797C133.939 68.8896 133.601 68.8446 133.211 68.8446C132.873 68.8446 132.569 68.8896 132.299 68.9797C132.029 69.0622 131.796 69.1785 131.601 69.3286C131.414 69.4787 131.267 69.655 131.162 69.8576C131.065 70.0527 131.016 70.2666 131.016 70.4992C131.016 70.7919 131.099 71.0358 131.264 71.2309C131.436 71.426 131.661 71.5948 131.939 71.7374C132.217 71.8799 132.532 72.0075 132.885 72.1201C133.237 72.2251 133.597 72.3414 133.965 72.469C134.34 72.5891 134.704 72.7241 135.057 72.8742C135.41 73.0243 135.725 73.2119 136.002 73.437C136.28 73.6621 136.501 73.9398 136.667 74.27C136.839 74.5926 136.925 74.9828 136.925 75.4406C136.925 75.9659 136.832 76.4536 136.644 76.9039C136.456 77.3466 136.179 77.733 135.811 78.0632C135.443 78.3859 134.993 78.641 134.46 78.8286C133.928 79.0162 133.312 79.11 132.614 79.11C131.819 79.11 131.099 78.9825 130.453 78.7273C129.808 78.4647 129.26 78.1308 128.81 77.7255L129.283 76.9601C129.343 76.8626 129.414 76.7875 129.496 76.735C129.579 76.6825 129.684 76.6562 129.812 76.6562C129.947 76.6562 130.089 76.7088 130.239 76.8138C130.389 76.9189 130.57 77.0352 130.78 77.1627C130.997 77.2903 131.26 77.4066 131.568 77.5117C131.875 77.6167 132.258 77.6693 132.716 77.6693C133.106 77.6693 133.447 77.6205 133.74 77.5229C134.033 77.4179 134.277 77.2791 134.472 77.1065C134.667 76.9339 134.809 76.735 134.899 76.5099C134.997 76.2848 135.046 76.0447 135.046 75.7895C135.046 75.4744 134.959 75.2155 134.787 75.0129C134.622 74.8027 134.4 74.6264 134.123 74.4838C133.845 74.3337 133.526 74.2062 133.166 74.1011C132.813 73.9886 132.449 73.8723 132.074 73.7522C131.706 73.6321 131.342 73.4971 130.982 73.347C130.63 73.1894 130.314 72.9943 130.037 72.7617C129.759 72.529 129.534 72.2439 129.361 71.9062C129.196 71.561 129.114 71.1446 129.114 70.6568C129.114 70.2216 129.204 69.8051 129.384 69.4074C129.564 69.0022 129.827 68.6495 130.172 68.3493C130.517 68.0417 130.941 67.7978 131.444 67.6177C131.947 67.4376 132.521 67.3475 133.166 67.3475C133.916 67.3475 134.588 67.4676 135.181 67.7077C135.781 67.9404 136.299 68.263 136.734 68.6758L136.284 69.4074ZM145.438 67.5276V78.9299H143.434V67.5276H145.438ZM145.865 63.9482C145.865 64.1434 145.824 64.3272 145.741 64.4998C145.666 64.6649 145.561 64.815 145.426 64.95C145.299 65.0776 145.145 65.1789 144.965 65.2539C144.792 65.329 144.608 65.3665 144.413 65.3665C144.218 65.3665 144.034 65.329 143.862 65.2539C143.697 65.1789 143.55 65.0776 143.423 64.95C143.295 64.815 143.194 64.6649 143.119 64.4998C143.044 64.3272 143.006 64.1434 143.006 63.9482C143.006 63.7531 143.044 63.5693 143.119 63.3967C143.194 63.2166 143.295 63.0628 143.423 62.9352C143.55 62.8001 143.697 62.6951 143.862 62.62C144.034 62.545 144.218 62.5075 144.413 62.5075C144.608 62.5075 144.792 62.545 144.965 62.62C145.145 62.6951 145.299 62.8001 145.426 62.9352C145.561 63.0628 145.666 63.2166 145.741 63.3967C145.824 63.5693 145.865 63.7531 145.865 63.9482ZM160.605 69.5537C160.545 69.6363 160.485 69.7 160.425 69.7451C160.364 69.7901 160.282 69.8126 160.177 69.8126C160.064 69.8126 159.941 69.7676 159.805 69.6775C159.67 69.58 159.502 69.4749 159.299 69.3624C159.104 69.2498 158.86 69.1485 158.567 69.0585C158.282 68.9609 157.929 68.9121 157.509 68.9121C156.946 68.9121 156.451 69.0134 156.023 69.216C155.596 69.4111 155.236 69.6963 154.943 70.0715C154.658 70.4467 154.44 70.9007 154.29 71.4335C154.147 71.9662 154.076 72.5628 154.076 73.2232C154.076 73.9135 154.155 74.5289 154.313 75.0691C154.47 75.6019 154.691 76.0522 154.977 76.4199C155.269 76.78 155.618 77.0577 156.023 77.2528C156.436 77.4404 156.898 77.5342 157.408 77.5342C157.896 77.5342 158.297 77.4779 158.612 77.3654C158.927 77.2453 159.186 77.114 159.389 76.9714C159.599 76.8288 159.772 76.7013 159.907 76.5887C160.049 76.4686 160.188 76.4086 160.323 76.4086C160.488 76.4086 160.616 76.4724 160.706 76.5999L161.269 77.3316C161.021 77.6392 160.74 77.9019 160.425 78.1195C160.109 78.3371 159.768 78.521 159.4 78.671C159.04 78.8136 158.661 78.9187 158.263 78.9862C157.866 79.0537 157.46 79.0875 157.048 79.0875C156.335 79.0875 155.671 78.9562 155.055 78.6936C154.448 78.4309 153.919 78.052 153.468 77.5567C153.018 77.0539 152.665 76.4386 152.41 75.7107C152.155 74.9828 152.028 74.1537 152.028 73.2232C152.028 72.3752 152.144 71.591 152.377 70.8707C152.617 70.1503 152.962 69.5312 153.412 69.0134C153.87 68.4882 154.429 68.0792 155.089 67.7865C155.757 67.4939 156.522 67.3475 157.385 67.3475C158.188 67.3475 158.894 67.4789 159.502 67.7415C160.117 67.9966 160.661 68.3606 161.134 68.8333L160.605 69.5537ZM171.968 67.3475C172.8 67.3475 173.551 67.4864 174.219 67.764C174.887 68.0417 175.457 68.4356 175.93 68.9459C176.402 69.4562 176.763 70.0752 177.01 70.8031C177.265 71.5235 177.393 72.3302 177.393 73.2232C177.393 74.1236 177.265 74.9341 177.01 75.6544C176.763 76.3748 176.402 76.9902 175.93 77.5004C175.457 78.0107 174.887 78.4047 174.219 78.6823C173.551 78.9524 172.8 79.0875 171.968 79.0875C171.127 79.0875 170.369 78.9524 169.694 78.6823C169.026 78.4047 168.456 78.0107 167.983 77.5004C167.51 76.9902 167.146 76.3748 166.891 75.6544C166.643 74.9341 166.52 74.1236 166.52 73.2232C166.52 72.3302 166.643 71.5235 166.891 70.8031C167.146 70.0752 167.51 69.4562 167.983 68.9459C168.456 68.4356 169.026 68.0417 169.694 67.764C170.369 67.4864 171.127 67.3475 171.968 67.3475ZM171.968 77.5229C173.093 77.5229 173.934 77.1477 174.489 76.3973C175.044 75.6394 175.322 74.5851 175.322 73.2344C175.322 71.8762 175.044 70.8181 174.489 70.0602C173.934 69.3023 173.093 68.9234 171.968 68.9234C171.397 68.9234 170.898 69.0209 170.47 69.216C170.05 69.4111 169.698 69.6925 169.412 70.0602C169.135 70.4279 168.925 70.8819 168.782 71.4222C168.647 71.955 168.579 72.5591 168.579 73.2344C168.579 74.5851 168.857 75.6394 169.412 76.3973C169.975 77.1477 170.827 77.5229 171.968 77.5229ZM185.945 62.3499V78.9299H183.941V62.3499H185.945ZM197.94 67.3475C198.773 67.3475 199.523 67.4864 200.191 67.764C200.859 68.0417 201.429 68.4356 201.902 68.9459C202.375 69.4562 202.735 70.0752 202.982 70.8031C203.238 71.5235 203.365 72.3302 203.365 73.2232C203.365 74.1236 203.238 74.9341 202.982 75.6544C202.735 76.3748 202.375 76.9902 201.902 77.5004C201.429 78.0107 200.859 78.4047 200.191 78.6823C199.523 78.9524 198.773 79.0875 197.94 79.0875C197.099 79.0875 196.341 78.9524 195.666 78.6823C194.998 78.4047 194.428 78.0107 193.955 77.5004C193.482 76.9902 193.118 76.3748 192.863 75.6544C192.616 74.9341 192.492 74.1236 192.492 73.2232C192.492 72.3302 192.616 71.5235 192.863 70.8031C193.118 70.0752 193.482 69.4562 193.955 68.9459C194.428 68.4356 194.998 68.0417 195.666 67.764C196.341 67.4864 197.099 67.3475 197.94 67.3475ZM197.94 77.5229C199.065 77.5229 199.906 77.1477 200.461 76.3973C201.016 75.6394 201.294 74.5851 201.294 73.2344C201.294 71.8762 201.016 70.8181 200.461 70.0602C199.906 69.3023 199.065 68.9234 197.94 68.9234C197.369 68.9234 196.87 69.0209 196.443 69.216C196.022 69.4111 195.67 69.6925 195.385 70.0602C195.107 70.4279 194.897 70.8819 194.754 71.4222C194.619 71.955 194.552 72.5591 194.552 73.2344C194.552 74.5851 194.829 75.6394 195.385 76.3973C195.947 77.1477 196.799 77.5229 197.94 77.5229ZM213.753 73.3582C214.159 73.3582 214.515 73.302 214.823 73.1894C215.13 73.0768 215.389 72.9192 215.599 72.7166C215.809 72.514 215.967 72.2739 216.072 71.9963C216.177 71.7111 216.23 71.3997 216.23 71.062C216.23 70.3641 216.016 69.8089 215.588 69.3961C215.168 68.9834 214.556 68.7771 213.753 68.7771C212.943 68.7771 212.324 68.9834 211.896 69.3961C211.476 69.8089 211.266 70.3641 211.266 71.062C211.266 71.3997 211.318 71.7111 211.423 71.9963C211.536 72.2739 211.697 72.514 211.907 72.7166C212.117 72.9192 212.376 73.0768 212.684 73.1894C212.992 73.302 213.348 73.3582 213.753 73.3582ZM217.366 79.549C217.366 79.2714 217.288 79.0462 217.13 78.8737C216.973 78.7011 216.759 78.566 216.489 78.4684C216.226 78.3709 215.918 78.3033 215.566 78.2658C215.213 78.2208 214.838 78.187 214.44 78.1645C214.05 78.142 213.652 78.1195 213.247 78.097C212.842 78.0745 212.451 78.037 212.076 77.9844C211.656 78.1795 211.311 78.4272 211.041 78.7273C210.778 79.02 210.647 79.3652 210.647 79.7629C210.647 80.018 210.71 80.2544 210.838 80.472C210.973 80.6971 211.176 80.8885 211.446 81.0461C211.716 81.2111 212.054 81.3387 212.459 81.4288C212.872 81.5263 213.356 81.5751 213.911 81.5751C214.451 81.5751 214.935 81.5263 215.363 81.4288C215.791 81.3312 216.151 81.1924 216.443 81.0123C216.744 80.8322 216.973 80.6183 217.13 80.3707C217.288 80.1231 217.366 79.8492 217.366 79.549ZM219.404 67.9779V68.7208C219.404 68.9684 219.246 69.126 218.931 69.1935L217.637 69.3624C217.892 69.8576 218.019 70.4054 218.019 71.0057C218.019 71.561 217.911 72.0675 217.693 72.5253C217.483 72.9755 217.19 73.362 216.815 73.6847C216.44 74.0073 215.99 74.255 215.464 74.4275C214.939 74.6001 214.369 74.6864 213.753 74.6864C213.221 74.6864 212.718 74.6227 212.245 74.4951C212.005 74.6452 211.821 74.8065 211.693 74.9791C211.566 75.1442 211.502 75.313 211.502 75.4856C211.502 75.7558 211.611 75.9621 211.829 76.1047C212.054 76.2398 212.346 76.3373 212.707 76.3973C213.067 76.4574 213.476 76.4949 213.933 76.5099C214.399 76.5249 214.871 76.5512 215.352 76.5887C215.839 76.6187 216.312 76.675 216.77 76.7575C217.235 76.8401 217.648 76.9751 218.008 77.1627C218.368 77.3503 218.657 77.6092 218.875 77.9394C219.1 78.2696 219.212 78.6973 219.212 79.2226C219.212 79.7103 219.089 80.1831 218.841 80.6408C218.601 81.0986 218.252 81.5038 217.794 81.8565C217.336 82.2167 216.774 82.5018 216.106 82.7119C215.445 82.9295 214.699 83.0384 213.866 83.0384C213.033 83.0384 212.305 82.9558 211.682 82.7907C211.059 82.6256 210.542 82.4043 210.129 82.1266C209.716 81.849 209.405 81.5263 209.195 81.1586C208.992 80.7984 208.891 80.4195 208.891 80.0218C208.891 79.459 209.067 78.9825 209.42 78.5923C209.772 78.202 210.256 77.8906 210.872 77.658C210.534 77.5079 210.264 77.3091 210.061 77.0614C209.866 76.8063 209.769 76.4649 209.769 76.0372C209.769 75.8721 209.799 75.7032 209.859 75.5306C209.919 75.3505 210.009 75.1742 210.129 75.0016C210.256 74.8215 210.41 74.6527 210.59 74.4951C210.77 74.3375 210.981 74.1987 211.221 74.0786C210.658 73.7634 210.219 73.347 209.904 72.8292C209.589 72.3039 209.431 71.6961 209.431 71.0057C209.431 70.4504 209.536 69.9477 209.746 69.4974C209.964 69.0397 210.264 68.6532 210.647 68.3381C211.029 68.0154 211.483 67.7678 212.009 67.5952C212.541 67.4226 213.123 67.3363 213.753 67.3363C214.249 67.3363 214.71 67.3926 215.138 67.5051C215.566 67.6102 215.956 67.7678 216.308 67.9779H219.404ZM227.543 67.5276V78.9299H225.528V67.5276H227.543ZM229.861 62.62L227.239 65.5241C227.134 65.6366 227.029 65.7192 226.923 65.7717C226.826 65.8167 226.698 65.8393 226.541 65.8393H225.348L227.014 63.1153C227.119 62.9427 227.231 62.8189 227.351 62.7439C227.479 62.6613 227.663 62.62 227.903 62.62H229.861ZM240.942 73.7972C240.019 73.8272 239.232 73.9023 238.579 74.0223C237.933 74.1349 237.404 74.285 236.992 74.4726C236.586 74.6602 236.29 74.8815 236.102 75.1367C235.922 75.3918 235.832 75.677 235.832 75.9921C235.832 76.2923 235.881 76.5512 235.979 76.7688C236.076 76.9864 236.207 77.1665 236.373 77.3091C236.545 77.4441 236.744 77.5454 236.969 77.613C237.202 77.673 237.449 77.703 237.712 77.703C238.065 77.703 238.387 77.6693 238.68 77.6017C238.973 77.5267 239.247 77.4216 239.502 77.2866C239.764 77.1515 240.012 76.9902 240.245 76.8026C240.485 76.615 240.717 76.4011 240.942 76.161V73.7972ZM234.47 69.1372C235.101 68.5294 235.78 68.0754 236.508 67.7753C237.235 67.4751 238.042 67.325 238.928 67.325C239.565 67.325 240.132 67.4301 240.627 67.6402C241.123 67.8503 241.539 68.143 241.877 68.5182C242.214 68.8934 242.47 69.3474 242.642 69.8801C242.815 70.4129 242.901 70.9982 242.901 71.6361V78.9299H242.012C241.817 78.9299 241.667 78.8999 241.562 78.8399C241.456 78.7723 241.374 78.6448 241.314 78.4572L241.089 77.3766C240.789 77.6543 240.496 77.9019 240.211 78.1195C239.926 78.3296 239.625 78.5097 239.31 78.6598C238.995 78.8024 238.657 78.9112 238.297 78.9862C237.945 79.0688 237.551 79.11 237.115 79.11C236.673 79.11 236.256 79.05 235.866 78.9299C235.476 78.8024 235.134 78.6148 234.842 78.3671C234.557 78.1195 234.328 77.8081 234.155 77.4329C233.99 77.0502 233.907 76.5999 233.907 76.0822C233.907 75.6319 234.031 75.2005 234.279 74.7877C234.527 74.3675 234.928 73.9961 235.483 73.6734C236.039 73.3507 236.763 73.0881 237.656 72.8855C238.549 72.6754 239.644 72.5553 240.942 72.5253V71.6361C240.942 70.7506 240.751 70.0827 240.368 69.6325C239.986 69.1748 239.427 68.9459 238.691 68.9459C238.196 68.9459 237.78 69.0097 237.442 69.1372C237.112 69.2573 236.823 69.3961 236.575 69.5537C236.335 69.7038 236.125 69.8426 235.945 69.9702C235.772 70.0903 235.6 70.1503 235.427 70.1503C235.292 70.1503 235.176 70.1165 235.078 70.049C234.981 69.9739 234.898 69.8839 234.83 69.7788L234.47 69.1372Z" fill="#236668"/>
<path d="M0.162247 45.2228C0.162247 51.1616 1.33196 57.0421 3.60461 62.5288C5.87726 68.0154 9.20833 73.0007 13.4076 77.2C17.6069 81.3993 22.5922 84.7304 28.0789 87.0031C33.5656 89.2757 39.4461 90.4454 45.3848 90.4454C51.3235 90.4454 57.2041 89.2757 62.6908 87.0031C68.1774 84.7304 73.1627 81.3993 77.362 77.2C81.5613 73.0007 84.8924 68.0154 87.165 62.5288C89.4377 57.0421 90.6074 51.1616 90.6074 45.2228H45.3848H0.162247Z" fill="#236668"/>
<path d="M0.162247 45.2228C0.162247 39.2841 1.33196 33.4035 3.60461 27.9169C5.87726 22.4302 9.20833 17.4449 13.4076 13.2456C17.6069 9.04633 22.5922 5.71525 28.0789 3.44261C33.5656 1.16996 39.4461 0.000243881 45.3848 0.000244141C51.3235 0.0002444 57.2041 1.16996 62.6908 3.44261C68.1774 5.71526 73.1627 9.04633 77.362 13.2456C81.5613 17.4449 84.8924 22.4302 87.165 27.9169C89.4377 33.4036 90.6074 39.2841 90.6074 45.2228H45.3848H0.162247Z" fill="#FDCC61"/>
<path d="M0.162247 45.2228C0.162247 42.2443 0.747044 39.2948 1.88337 36.543C3.01969 33.7912 4.68523 31.2908 6.78488 29.1847C8.88453 27.0785 11.3772 25.4078 14.1205 24.268C16.8638 23.1281 19.8041 22.5415 22.7735 22.5415C25.7428 22.5415 28.6831 23.1281 31.4264 24.268C34.1698 25.4078 36.6624 27.0785 38.7621 29.1847C40.8617 31.2908 42.5273 33.7912 43.6636 36.543C44.7999 39.2948 45.3848 42.2443 45.3848 45.2228H0.162247Z" fill="#D97BE7"/>
<path d="M90.6074 45.2228C90.6074 48.2014 90.0225 51.1508 88.8862 53.9027C87.7498 56.6545 86.0843 59.1549 83.9847 61.261C81.885 63.3672 79.3924 65.0379 76.649 66.1777C73.9057 67.3175 70.9654 67.9042 67.996 67.9042C65.0267 67.9042 62.0864 67.3175 59.3431 66.1777C56.5998 65.0379 54.1071 63.3672 52.0075 61.261C49.9078 59.1549 48.2423 56.6545 47.1059 53.9027C45.9696 51.1508 45.3848 48.2014 45.3848 45.2228H90.6074Z" fill="#5CBFC2"/>
</svg>
